<svg width="180" height="180" viewBox="0 0 180 180" fill="none" xmlns="http://www.w3.org/2000/svg">
  <!-- 배경 -->
  <rect width="180" height="180" rx="40" fill="#4F46E5"/>
  
  <!-- 시간표 그리드 -->
  <rect x="30" y="30" width="120" height="120" rx="12" fill="white"/>
  
  <!-- 세로 선들 -->
  <line x1="60" y1="30" x2="60" y2="150" stroke="#E5E7EB" stroke-width="2"/>
  <line x1="90" y1="30" x2="90" y2="150" stroke="#E5E7EB" stroke-width="2"/>
  <line x1="120" y1="30" x2="120" y2="150" stroke="#E5E7EB" stroke-width="2"/>
  
  <!-- 가로 선들 -->
  <line x1="30" y1="60" x2="150" y2="60" stroke="#E5E7EB" stroke-width="2"/>
  <line x1="30" y1="90" x2="150" y2="90" stroke="#E5E7EB" stroke-width="2"/>
  <line x1="30" y1="120" x2="150" y2="120" stroke="#E5E7EB" stroke-width="2"/>
  
  <!-- 강의 블록들 -->
  <rect x="36" y="66" width="18" height="48" rx="6" fill="#10B981"/>
  <rect x="66" y="36" width="18" height="18" rx="6" fill="#F59E0B"/>
  <rect x="96" y="96" width="18" height="24" rx="6" fill="#EF4444"/>
  <rect x="126" y="66" width="18" height="36" rx="6" fill="#8B5CF6"/>
  
  <!-- 시계 아이콘 (왼쪽 상단) -->
  <circle cx="48" cy="48" r="12" fill="#4F46E5"/>
  <line x1="48" y1="42" x2="48" y2="48" stroke="white" stroke-width="3"/>
  <line x1="48" y1="48" x2="51" y2="51" stroke="white" stroke-width="3"/>
  
  <!-- 작은 그리드 점들 -->
  <circle cx="75" cy="75" r="2" fill="#D1D5DB"/>
  <circle cx="105" cy="75" r="2" fill="#D1D5DB"/>
  <circle cx="135" cy="75" r="2" fill="#D1D5DB"/>
  <circle cx="75" cy="105" r="2" fill="#D1D5DB"/>
  <circle cx="135" cy="105" r="2" fill="#D1D5DB"/>
  <circle cx="75" cy="135" r="2" fill="#D1D5DB"/>
  <circle cx="105" cy="135" r="2" fill="#D1D5DB"/>
  <circle cx="135" cy="135" r="2" fill="#D1D5DB"/>
</svg>