<svg width="32" height="32" viewBox="0 0 32 32" fill="none" xmlns="http://www.w3.org/2000/svg">
  <!-- 배경 -->
  <rect width="32" height="32" rx="6" fill="#4F46E5"/>
  
  <!-- 시간표 그리드 -->
  <rect x="6" y="6" width="20" height="20" rx="2" fill="white"/>
  
  <!-- 세로 선들 -->
  <line x1="11" y1="6" x2="11" y2="26" stroke="#E5E7EB" stroke-width="1"/>
  <line x1="16" y1="6" x2="16" y2="26" stroke="#E5E7EB" stroke-width="1"/>
  <line x1="21" y1="6" x2="21" y2="26" stroke="#E5E7EB" stroke-width="1"/>
  
  <!-- 가로 선들 -->
  <line x1="6" y1="11" x2="26" y2="11" stroke="#E5E7EB" stroke-width="1"/>
  <line x1="6" y1="16" x2="26" y2="16" stroke="#E5E7EB" stroke-width="1"/>
  <line x1="6" y1="21" x2="26" y2="21" stroke="#E5E7EB" stroke-width="1"/>
  
  <!-- 강의 블록들 -->
  <rect x="7" y="12" width="3" height="8" rx="1" fill="#10B981"/>
  <rect x="12" y="7" width="3" height="3" rx="1" fill="#F59E0B"/>
  <rect x="17" y="17" width="3" height="4" rx="1" fill="#EF4444"/>
  <rect x="22" y="12" width="3" height="6" rx="1" fill="#8B5CF6"/>
  
  <!-- 시계 아이콘 (왼쪽 상단) -->
  <circle cx="9" cy="9" r="2" fill="#4F46E5"/>
  <line x1="9" y1="8" x2="9" y2="9" stroke="white" stroke-width="0.5"/>
  <line x1="9" y1="9" x2="9.5" y2="9.5" stroke="white" stroke-width="0.5"/>
</svg>