<svg width="192" height="192" viewBox="0 0 192 192" fill="none" xmlns="http://www.w3.org/2000/svg">
  <!-- 배경 -->
  <rect width="192" height="192" rx="36" fill="#4F46E5"/>
  
  <!-- 시간표 그리드 -->
  <rect x="36" y="36" width="120" height="120" rx="12" fill="white"/>
  
  <!-- 세로 선들 -->
  <line x1="66" y1="36" x2="66" y2="156" stroke="#E5E7EB" stroke-width="2"/>
  <line x1="96" y1="36" x2="96" y2="156" stroke="#E5E7EB" stroke-width="2"/>
  <line x1="126" y1="36" x2="126" y2="156" stroke="#E5E7EB" stroke-width="2"/>
  
  <!-- 가로 선들 -->
  <line x1="36" y1="66" x2="156" y2="66" stroke="#E5E7EB" stroke-width="2"/>
  <line x1="36" y1="96" x2="156" y2="96" stroke="#E5E7EB" stroke-width="2"/>
  <line x1="36" y1="126" x2="156" y2="126" stroke="#E5E7EB" stroke-width="2"/>
  
  <!-- 강의 블록들 -->
  <rect x="42" y="72" width="18" height="48" rx="6" fill="#10B981"/>
  <rect x="72" y="42" width="18" height="18" rx="6" fill="#F59E0B"/>
  <rect x="102" y="102" width="18" height="24" rx="6" fill="#EF4444"/>
  <rect x="132" y="72" width="18" height="36" rx="6" fill="#8B5CF6"/>
  
  <!-- 시계 아이콘 (왼쪽 상단) -->
  <circle cx="54" cy="54" r="12" fill="#4F46E5"/>
  <line x1="54" y1="48" x2="54" y2="54" stroke="white" stroke-width="3"/>
  <line x1="54" y1="54" x2="57" y2="57" stroke="white" stroke-width="3"/>
  
  <!-- 작은 그리드 점들 -->
  <circle cx="81" cy="81" r="2" fill="#D1D5DB"/>
  <circle cx="111" cy="81" r="2" fill="#D1D5DB"/>
  <circle cx="141" cy="81" r="2" fill="#D1D5DB"/>
  <circle cx="81" cy="111" r="2" fill="#D1D5DB"/>
  <circle cx="141" cy="111" r="2" fill="#D1D5DB"/>
  <circle cx="81" cy="141" r="2" fill="#D1D5DB"/>
  <circle cx="111" cy="141" r="2" fill="#D1D5DB"/>
  <circle cx="141" cy="141" r="2" fill="#D1D5DB"/>
</svg>