<svg width="512" height="512" viewBox="0 0 512 512" fill="none" xmlns="http://www.w3.org/2000/svg">
  <!-- 배경 -->
  <rect width="512" height="512" rx="96" fill="#4F46E5"/>
  
  <!-- 시간표 그리드 -->
  <rect x="96" y="96" width="320" height="320" rx="32" fill="white"/>
  
  <!-- 세로 선들 -->
  <line x1="176" y1="96" x2="176" y2="416" stroke="#E5E7EB" stroke-width="4"/>
  <line x1="256" y1="96" x2="256" y2="416" stroke="#E5E7EB" stroke-width="4"/>
  <line x1="336" y1="96" x2="336" y2="416" stroke="#E5E7EB" stroke-width="4"/>
  
  <!-- 가로 선들 -->
  <line x1="96" y1="176" x2="416" y2="176" stroke="#E5E7EB" stroke-width="4"/>
  <line x1="96" y1="256" x2="416" y2="256" stroke="#E5E7EB" stroke-width="4"/>
  <line x1="96" y1="336" x2="416" y2="336" stroke="#E5E7EB" stroke-width="4"/>
  
  <!-- 강의 블록들 -->
  <rect x="112" y="192" width="48" height="128" rx="16" fill="#10B981"/>
  <rect x="192" y="112" width="48" height="48" rx="16" fill="#F59E0B"/>
  <rect x="272" y="272" width="48" height="64" rx="16" fill="#EF4444"/>
  <rect x="352" y="192" width="48" height="96" rx="16" fill="#8B5CF6"/>
  
  <!-- 시계 아이콘 (왼쪽 상단) -->
  <circle cx="144" cy="144" r="32" fill="#4F46E5"/>
  <line x1="144" y1="128" x2="144" y2="144" stroke="white" stroke-width="6"/>
  <line x1="144" y1="144" x2="152" y2="152" stroke="white" stroke-width="6"/>
  
  <!-- 작은 그리드 점들 -->
  <circle cx="216" cy="216" r="4" fill="#D1D5DB"/>
  <circle cx="296" cy="216" r="4" fill="#D1D5DB"/>
  <circle cx="376" cy="216" r="4" fill="#D1D5DB"/>
  <circle cx="216" cy="296" r="4" fill="#D1D5DB"/>
  <circle cx="376" cy="296" r="4" fill="#D1D5DB"/>
  <circle cx="216" cy="376" r="4" fill="#D1D5DB"/>
  <circle cx="296" cy="376" r="4" fill="#D1D5DB"/>
  <circle cx="376" cy="376" r="4" fill="#D1D5DB"/>
  
  <!-- 추가 장식 요소들 -->
  <rect x="200" y="200" width="8" height="8" rx="2" fill="#F3F4F6"/>
  <rect x="280" y="200" width="8" height="8" rx="2" fill="#F3F4F6"/>
  <rect x="360" y="200" width="8" height="8" rx="2" fill="#F3F4F6"/>
  <rect x="200" y="280" width="8" height="8" rx="2" fill="#F3F4F6"/>
  <rect x="360" y="280" width="8" height="8" rx="2" fill="#F3F4F6"/>
  <rect x="200" y="360" width="8" height="8" rx="2" fill="#F3F4F6"/>
  <rect x="280" y="360" width="8" height="8" rx="2" fill="#F3F4F6"/>
  <rect x="360" y="360" width="8" height="8" rx="2" fill="#F3F4F6"/>
</svg>